<?xml version="1.0" encoding="utf-8"?>
<svg xmlns="http://www.w3.org/2000/svg" xmlns:xlink="http://www.w3.org/1999/xlink" >

<symbol id="i-html" viewBox="-40 0 512 512.001" xmlns="http://www.w3.org/2000/svg"><path d="m73.003906 195.183594h-24.261718v29.425781c0 2.242187-2.535157 3.410156-5.164063 3.410156-2.535156 0-5.167969-1.167969-5.167969-3.410156v-64.507813c0-2.339843 2.632813-3.3125 5.167969-3.3125 2.628906 0 5.164063.972657 5.164063 3.3125v26.894532h24.261718v-26.894532c0-2.339843 2.632813-3.3125 5.167969-3.3125 2.628906 0 5.164063.972657 5.164063 3.3125v64.507813c0 2.242187-2.535157 3.410156-5.164063 3.410156-2.535156 0-5.167969-1.167969-5.167969-3.410156zm0 0"/><path d="m134.976562 156.789062c2.335938 0 3.410157 2.339844 3.410157 4.578126 0 2.535156-1.167969 4.875-3.410157 4.875h-15.007812v58.367187c0 2.242187-2.628906 3.410156-5.164062 3.410156-2.632813 0-5.164063-1.167969-5.164063-3.410156v-58.367187h-15.105469c-2.144531 0-3.410156-2.242188-3.410156-4.777344 0-2.242188 1.074219-4.675782 3.410156-4.675782zm0 0"/><path d="m176.871094 202.003906c-1.070313 1.753906-2.4375 2.335938-3.800782 2.335938-1.265624 0-2.628906-.582032-3.503906-2.335938l-13.058594-24.753906v47.359375c0 2.242187-2.535156 3.410156-5.167968 3.410156-2.53125 0-5.164063-1.167969-5.164063-3.410156v-62.65625c0-3.800781 2.535157-5.164063 5.164063-5.164063 3.703125 0 5.75 1.265626 8.1875 5.847657l13.640625 25.820312 13.839843-25.820312c2.433594-4.582031 4.382813-5.847657 8.085938-5.847657 2.730469 0 5.164062 1.363282 5.164062 5.164063v62.65625c0 2.242187-2.53125 3.410156-5.164062 3.410156-2.53125 0-5.164062-1.167969-5.164062-3.410156v-46.773437zm0 0"/><path d="m217.699219 228.019531c-2.242188 0-4.582031-1.167969-4.582031-3.410156v-64.507813c0-2.339843 2.632812-3.3125 5.167968-3.3125 2.628906 0 5.164063.972657 5.164063 3.3125v58.757813h25.335937c2.046875 0 3.117188 2.242187 3.117188 4.582031 0 2.242188-1.070313 4.578125-3.117188 4.578125zm0 0"/><path d="m430.527344 105.644531c-7.644532-7.070312-15.285156-14.140625-22.929688-21.210937-19.414062-17.960938-38.824218-35.917969-58.234375-53.878906-7.621093-7.046876-15.238281-14.09375-22.855469-21.140626-3.382812-3.128906-8.175781-9.320312-12.996093-9.41015575-.039063 0-.078125-.00390625-.117188-.00390625h-241.738281c-15.164062 0-27.503906 12.339844-27.503906 27.503906v94.8125h-17.722656c-14.574219 0-26.429688 11.855469-26.429688 26.429688v89.597656c0 14.570312 11.855469 26.425781 26.429688 26.425781h17.722656v56.035157c0 4.140624 3.359375 7.5 7.5 7.5 4.144531 0 7.503906-3.359376 7.503906-7.5v-56.035157h199.5625c14.570312 0 26.425781-11.855469 26.425781-26.425781v-89.597656c0-14.574219-11.855469-26.429688-26.425781-26.429688h-84.257812c-4.140626 0-7.5 3.359375-7.5 7.503906 0 4.140626 3.359374 7.5 7.5 7.5h84.257812c6.296875 0 11.421875 5.125 11.421875 11.425782v89.597656c0 6.296875-5.125 11.421875-11.421875 11.421875h-232.289062c-6.300782 0-11.425782-5.125-11.425782-11.421875v-89.597656c0-6.300782 5.125-11.425782 11.425782-11.425782h102.355468c4.144532 0 7.503906-3.359374 7.503906-7.5 0-4.144531-3.359374-7.503906-7.503906-7.503906h-69.628906v-94.8125c0-6.894531 5.605469-12.5 12.5-12.5h234.238281v76.425782c0 15.167968 12.335938 27.503906 27.503907 27.503906h84.53125v365.5625c0 6.894531-5.605469 12.503906-12.5 12.503906h-333.773438c-6.894531 0-12.5-5.609375-12.5-12.503906v-116.019532c0-4.140624-3.359375-7.5-7.503906-7.5-4.140625 0-7.5 3.359376-7.5 7.5v116.019532c0 15.167968 12.339844 27.503906 27.503906 27.503906h333.773438c15.164062 0 27.503906-12.335938 27.503906-27.503906v-373.347656c0-2.089844-.875-4.085938-2.40625-5.503907zm-97.128906-1.714843c-6.894532 0-12.503907-5.605469-12.503907-12.5v-66.738282l85.421875 79.238282zm0 0"/><path d="m197.222656 292.429688c-2.925781-2.929688-7.675781-2.929688-10.605468 0l-47.007813 47.007812c-2.929687 2.929688-2.929687 7.679688 0 10.609375l47.007813 47.007813c1.464843 1.464843 3.382812 2.195312 5.304687 2.195312 1.917969 0 3.839844-.730469 5.300781-2.195312 2.929688-2.929688 2.929688-7.679688 0-10.609376l-41.703125-41.703124 41.703125-41.707032c2.929688-2.925781 2.929688-7.675781 0-10.605468zm0 0"/><path d="m279.859375 397.054688c1.464844 1.464843 3.386719 2.195312 5.304687 2.195312 1.921876 0 3.839844-.730469 5.304688-2.195312l47.007812-47.007813c2.929688-2.929687 2.929688-7.679687 0-10.609375l-47.007812-47.007812c-2.929688-2.929688-7.679688-2.929688-10.609375 0-2.925781 2.929687-2.925781 7.679687 0 10.605468l41.707031 41.707032-41.707031 41.703124c-2.929687 2.929688-2.929687 7.679688 0 10.609376zm0 0"/><path d="m220.074219 399.253906c2.992187 0 5.824219-1.804687 6.984375-4.761718l36.933594-94.015626c1.515624-3.855468-.382813-8.210937-4.238282-9.726562-3.855468-1.515625-8.210937.382812-9.726562 4.238281l-36.933594 94.019531c-1.515625 3.855469.382812 8.207032 4.238281 9.722657.902344.355469 1.828125.523437 2.742188.523437zm0 0"/></symbol>
<symbol id="i-html5" xmlns="http://www.w3.org/2000/svg" xmlns:xlink="http://www.w3.org/1999/xlink" x="0px" y="0px"
	 viewBox="0 0 512 512" style="enable-background:new 0 0 512 512;" xml:space="preserve">
<g>
	<g>
		<g>
			<path d="M123.377,258.155c0.874,9.799,9.264,17.475,19.102,17.475h169.177l-4.589,51.175c-0.136,0.469-0.806,1.267-1.244,1.482
				l-44.73,12.088c-2.038,0.551-3.904,1.055-5.308,1.432c-1.402-0.377-3.268-0.88-5.304-1.43l-44.651-12.057
				c-0.437-0.214-1.104-1.008-1.238-1.475l-2.408-26.972c-0.877-9.797-9.268-17.471-19.103-17.471h-38.168
				c-5.01,0-9.789,2.085-13.114,5.719c-3.324,3.635-4.976,8.579-4.531,13.568l6.155,69.078c0.773,8.676,7.686,16.973,16.077,19.3
				l95.613,26.531c7.166,1.988,9.377,2.602,10.918,2.602c0.687,0,1.242-0.122,2.045-0.299c0.32-0.072,0.407-0.091,8.566-2.351
				l95.512-26.484c7.326-2.033,15.039-7.679,15.753-15.708l13.851-155.126c0.431-4.761-1.139-9.484-4.311-12.958
				c-3.171-3.47-7.727-5.461-12.502-5.461H193.343l-3.161-35.323h196.954c5.273,0,9.676-4.019,10.156-9.269l4.316-47.13
				c0.415-4.672-1.109-9.162-4.292-12.64c-3.351-3.661-8.245-5.763-13.426-5.763c-0.001,0-0.003,0-0.004,0H127.796
				c-5.185,0-10.082,2.1-13.433,5.763c-3.181,3.479-4.705,7.965-4.29,12.641L123.377,258.155z M380.942,111.086l-3.115,34.005
				H187.246c-5.009,0-9.787,2.084-13.111,5.718c-3.324,3.635-4.976,8.579-4.53,13.572l3.52,39.353
				c0.872,9.8,9.265,17.477,19.105,17.477h178.873l-13.28,148.765c-0.32,0.159-0.701,0.317-1.119,0.432l-95.509,26.483
				c-2.063,0.572-3.96,1.096-5.384,1.489c-1.284-0.348-3.058-0.833-5.243-1.439l-95.545-26.511
				c-0.455-0.222-1.151-1.058-1.288-1.547l-5.887-66.084h34.121l2.315,25.929c0.775,8.705,7.723,16.987,16.159,19.265l44.723,12.077
				c9.241,2.495,9.241,2.495,10.623,2.495c1.379,0,1.379,0,10.625-2.498l44.801-12.106c8.435-2.277,15.383-10.557,16.164-19.258
				l4.859-54.176c0.448-4.99-1.203-9.938-4.525-13.573c-3.323-3.635-8.103-5.721-13.113-5.721H143.595L130.73,111.086H380.942z"/>
			<path d="M478.2,5.723C474.876,2.086,470.093,0,465.083,0H46.917c-5.008,0-9.786,2.084-13.11,5.717
				c-3.325,3.634-4.977,8.578-4.533,13.57L67.366,446.53c0.772,8.675,7.683,16.974,16.076,19.305l161.635,44.88
				c3.083,0.857,6.866,1.285,10.65,1.285c3.776,0,7.553-0.427,10.637-1.281l162.127-44.953c8.395-2.327,15.308-10.624,16.082-19.298
				l38.153-427.173C483.173,14.305,481.524,9.359,478.2,5.723z M424.262,444.582c-0.14,0.499-0.861,1.358-1.221,1.527
				l-162.124,44.952c-2.575,0.713-7.814,0.714-10.383-0.001L88.993,446.212c-0.464-0.204-1.206-1.095-1.31-1.49L49.852,20.398
				h412.294L424.262,444.582z"/>
		</g>
	</g>
</g>
<g>
	<g>
		<path d="M190.727,34.679H77.517c-5.632,0-10.199,4.567-10.199,10.199c0,5.632,4.567,10.199,10.199,10.199h113.21
			c5.633,0,10.199-4.567,10.199-10.199C200.926,39.246,196.359,34.679,190.727,34.679z"/>
	</g>
</g>
<g>
	<g>
		<path d="M232.543,34.679h-4.08c-5.632,0-10.199,4.567-10.199,10.199c0,5.632,4.567,10.199,10.199,10.199h4.08
			c5.633,0,10.199-4.567,10.199-10.199C242.742,39.246,238.175,34.679,232.543,34.679z"/>
	</g>
</g>
<g>
</g>
<g>
</g>
<g>
</g>
<g>
</g>
<g>
</g>
<g>
</g>
<g>
</g>
<g>
</g>
<g>
</g>
<g>
</g>
<g>
</g>
<g>
</g>
<g>
</g>
<g>
</g>
<g>
</g>
</symbol>

<symbol id="i-css" viewBox="-60 0 512 512.00002" xmlns="http://www.w3.org/2000/svg"><path d="m384.210938 431.613281c4.179687 0 7.570312-3.390625 7.570312-7.570312v-401.25c0-12.566407-10.222656-22.792969-22.789062-22.792969-105.628907 0-235.15625 0-347.160157 0-12.039062 0-21.832031 9.792969-21.832031 21.832031v225.730469c0 4.1875 3.390625 7.570312 7.570312 7.570312 4.179688 0 7.570313-3.382812 7.570313-7.570312v-51.808594h194.304687c4.183594 0 7.574219-3.390625 7.574219-7.570312 0-4.179688-3.390625-7.570313-7.574219-7.570313h-194.304687v-158.78125c0-3.695312 2.996094-6.691406 6.691406-6.691406h299.757813c3.695312 0 6.691406 2.996094 6.691406 6.691406v158.78125h-88.550781c-4.183594 0-7.570313 3.390625-7.570313 7.570313 0 4.179687 3.386719 7.570312 7.570313 7.570312h88.550781v126.359375h-313.140625v-44.269531c0-4.179688-3.390625-7.570312-7.570313-7.570312-4.179687 0-7.570312 3.390624-7.570312 7.570312v180.941406c0 12.042969 9.792969 21.84375 21.832031 21.84375h4.390625v8.578125c0 12.566407 10.226563 22.792969 22.804688 22.792969h319.964844c12.566406 0 22.789062-10.226562 22.789062-22.792969v-34.882812c0-4.179688-3.390625-7.570313-7.570312-7.570313-4.179688 0-7.570313 3.390625-7.570313 7.570313v34.882812c0 4.21875-3.429687 7.652344-7.648437 7.652344h-319.964844c-4.230469 0-7.664063-3.433594-7.664063-7.652344v-8.578125h172.03125c4.261719 0 6.355469-2.367187 9.253907-5.25 21.253906-20.546875 104.613281-101.160156 117.886718-114 1.835938-1.777344 2.886719-4.257812 2.886719-6.8125 0-12.210937 0-320.179687 0-332.734375 0-2.332031-.363281-4.582031-1.050781-6.691406h26.621094c4.21875 0 7.648437 3.433594 7.648437 7.652344v401.25c0 4.179687 3.390625 7.570312 7.570313 7.570312zm-162.480469 23.589844v-85.707031c0-3.613282 2.9375-6.550782 6.550781-6.550782h88.855469c-180.363281 174.421876 5.441406-5.261718-95.40625 92.257813zm106.550781-107.398437h-100c-11.960938 0-21.691406 9.730468-21.691406 21.691406v95.992187c-9.390625 0-176.195313 0-184.757813 0-3.695312 0-6.691406-3.007812-6.691406-6.703125v-121.53125h313.140625zm0 0"/><path d="m249.695312 153.941406c4.328126 0 8.523438-1.277344 12.128907-3.691406l47.148437-31.617188c13.03125-8.734374 12.851563-28.007812-.402344-36.472656 0 0 0 0-.003906 0l-47.148437-30.109375c-10.125-6.46875-23.632813-3.492187-30.101563 6.640625-6.46875 10.128906-3.492187 23.632813 6.640625 30.097656l19.078125 12.1875-19.488281 13.066407c-17.960937 12.039062-9.15625 39.902343 12.148437 39.898437zm-3.71875-27.324218 29.097657-19.511719c4.523437-3.035157 4.457031-9.730469-.144531-12.667969l-28.828126-18.410156c-3.09375-1.976563-4.003906-6.097656-2.03125-9.191406 1.972657-3.082032 6.089844-4.007813 9.195313-2.027344l47.152344 30.109375c4.035156 2.578125 4.109375 8.464843.121093 11.140625-49.125 32.476562-47.265624 32.742187-50.847656 32.742187-6.539062 0-9.1875-8.515625-3.714844-12.183593zm0 0"/><path d="m112.109375 58.6875c-6.464844-10.128906-19.964844-13.105469-30.101563-6.640625l-47.148437 30.113281c-13.246094 8.457032-13.445313 27.730469-.40625 36.472656l47.148437 31.617188c3.605469 2.414062 7.800782 3.691406 12.132813 3.691406 21.34375 0 30.078125-27.875 12.144531-39.898437l-19.488281-13.066407 19.082031-12.1875c10.128906-6.46875 13.105469-19.972656 6.636719-30.101562zm-14.785156 17.339844-28.832031 18.410156c-4.59375 2.9375-4.671876 9.632812-.140626 12.671875 28.699219 19.980469 30.988282 19.023437 31.917969 23.75 1.136719 5.765625-5.292969 10.125-10.234375 6.8125l-47.152344-31.613281c-3.996093-2.679688-3.910156-8.5625.125-11.136719 49.019532-30.855469 47.097657-31.15625 50.722657-31.15625 6.652343 0 9.171875 8.699219 3.59375 12.261719zm0 0"/><path d="m177.316406 57.371094-46.125 61.726562c-3.484375 4.664063-4.945312 10.40625-4.113281 16.167969 2.761719 19.074219 27.402344 25.492187 39.03125 9.925781l46.125-61.726562c3.484375-4.664063 4.945313-10.40625 4.113281-16.167969-2.796875-19.316406-27.535156-25.316406-39.03125-9.925781zm-23.335937 78.757812c-3.542969 4.742188-11.074219 2.800782-11.917969-3.03125-.746094-5.148437.671875-3.050781 47.378906-66.664062 3.523438-4.707032 11.070313-2.847656 11.917969 3.03125.746094 5.148437-.664063 3.046875-47.378906 66.664062zm0 0"/><path d="m109.480469 233.722656c9.421875 0 9.753906 7.09375 9.863281 9.976563.222656 3.992187 3.992188 5.210937 8.644531 5.210937 5.875 0 8.648438-1.554687 8.648438-8.203125 0-14.078125-11.972657-22.058593-27.824219-22.058593-14.519531 0-26.601562 7.09375-26.601562 26.160156v29.375c0 19.066406 12.082031 26.160156 26.601562 26.160156 15.851562 0 27.824219-8.425781 27.824219-23.167969 0-6.652343-2.773438-8.203125-8.757813-8.203125-4.433594 0-8.203125 1.109375-8.535156 5.210938-.332031 4.324218-.886719 11.085937-9.753906 11.085937-6.429688 0-10.089844-3.546875-10.089844-11.085937v-29.375c.003906-7.539063 3.660156-11.085938 9.980469-11.085938zm0 0"/><path d="m170.21875 285.265625c-10.308594 0-13.636719-8.199219-18.84375-8.199219-4.210938 0-7.539062 5.539063-7.539062 9.308594 0 7.316406 12.195312 14.410156 26.714843 14.410156 16.070313 0 27.710938-8.644531 27.710938-24.605468 0-27.933594-35.136719-25.828126-35.136719-36.914063 0-3.433594 3.214844-6.648437 11.082031-6.648437 9.089844 0 11.195313 4.210937 15.1875 4.210937 4.878907 0 6.875-6.097656 6.875-9.089844 0-8.644531-16.183593-9.753906-22.0625-9.753906-13.855469 0-28.375 6.316406-28.375 22.945313 0 25.9375 35.136719 23.609374 35.136719 37.023437.003906 5.320313-5.652344 7.3125-10.75 7.3125zm0 0"/><path d="m231.621094 285.265625c-10.308594 0-13.632813-8.199219-18.84375-8.199219-4.210938 0-7.539063 5.539063-7.539063 9.308594 0 7.316406 12.195313 14.410156 26.71875 14.410156 16.070313 0 27.710938-8.644531 27.710938-24.605468 0-27.933594-35.140625-25.828126-35.140625-36.914063 0-3.433594 3.214844-6.648437 11.085937-6.648437 9.089844 0 11.195313 4.210937 15.183594 4.210937 4.878906 0 6.875-6.097656 6.875-9.089844 0-8.644531-16.183594-9.753906-22.058594-9.753906-13.859375 0-28.378906 6.316406-28.378906 22.945313 0 25.9375 35.140625 23.609374 35.140625 37.023437 0 5.320313-5.652344 7.3125-10.753906 7.3125zm0 0"/></symbol>

<symbol version="1.1" id="i-css3" xmlns="http://www.w3.org/2000/svg" xmlns:xlink="http://www.w3.org/1999/xlink" x="0px" y="0px"
	 viewBox="0 0 512 512" style="enable-background:new 0 0 512 512;" xml:space="preserve">
<g>
	<g>
		<path d="M475.803,5.184C472.763,1.888,468.507,0,463.995,0h-416c-4.48,0-8.768,1.888-11.808,5.184
			c-3.008,3.328-4.512,7.744-4.128,12.192l37.888,432c0.576,6.656,5.184,12.192,11.584,14.016l170.112,48
			c1.44,0.416,2.88,0.608,4.352,0.608c1.472,0,2.944-0.192,4.352-0.576l170.048-47.968c6.4-1.824,10.976-7.392,11.584-14.016
			l37.952-432.032C480.348,12.928,478.843,8.512,475.803,5.184z M411.099,435.616L255.995,479.36l-155.136-43.776L65.467,32h381.056
			L411.099,435.616z"/>
	</g>
</g>
<g>
	<g>
		<path d="M379.675,101.056c-3.008-3.232-7.232-5.056-11.68-5.056h-224c-8.832,0-16,7.168-16,16c0,8.832,7.168,16,16,16h206.912
			l-14.176,212.224l-80.736,26.912l-80-26.656V320c0-8.832-7.168-16-16-16c-8.832,0-16,7.168-16,16v32
			c0,6.88,4.416,12.992,10.944,15.2l96,32c1.632,0.512,3.36,0.8,5.056,0.8c1.728,0,3.392-0.288,5.056-0.832l96-32
			c6.176-2.048,10.464-7.616,10.912-14.112l16-240C384.251,108.64,382.683,104.288,379.675,101.056z"/>
	</g>
</g>
<g>
	<g>
		<path d="M359.355,224h-211.52c-8.832,0-16,7.168-16,16c0,8.832,7.168,16,16,16h211.52c8.864,0,16-7.168,16-16
			C375.355,231.168,368.187,224,359.355,224z"/>
	</g>
</g>
<g>
</g>
<g>
</g>
<g>
</g>
<g>
</g>
<g>
</g>
<g>
</g>
<g>
</g>
<g>
</g>
<g>
</g>
<g>
</g>
<g>
</g>
<g>
</g>
<g>
</g>
<g>
</g>
<g>
</g>
</symbol>

<symbol version="1.1" id="i-pug" xmlns="http://www.w3.org/2000/svg" xmlns:xlink="http://www.w3.org/1999/xlink" x="0px" y="0px"
	 viewBox="0 0 478.928 478.928" style="enable-background:new 0 0 478.928 478.928;" xml:space="preserve">
<g>
	<path d="M166.707,265.59c14.329-8.941,18.713-27.873,9.771-42.203c-1.582-2.536-3.439-4.633-5.51-6.287
		c2.677-4.214,4.402-9.03,4.989-14.16c1.165-10.202-2.33-20.217-9.591-27.477c-3.516-3.515-9.213-3.515-12.729,0
		c-3.515,3.515-3.515,9.213,0,12.728c3.357,3.357,4.975,7.989,4.436,12.706c-0.539,4.718-3.159,8.865-7.188,11.378
		c0,0-23.658,15.23-27.159,21.065c-4.188,6.98-3.912,14.963,0.777,22.478c5.802,9.298,15.81,14.408,26.037,14.408
		C156.076,270.226,161.675,268.73,166.707,265.59z M139.775,246.289c-1.44-2.309-1.039-2.979-0.614-3.687
		c1.142-1.903,4.068-4.332,8.697-7.22c4.629-2.888,8.097-4.449,10.308-4.638c0.141-0.012,0.28-0.024,0.422-0.024
		c0.687,0,1.426,0.281,2.62,2.196c3.688,5.909,1.88,13.716-4.029,17.403C151.274,254.006,143.463,252.2,139.775,246.289z"/>
	<path d="M322.041,212.275c-4.028-2.514-6.648-6.661-7.188-11.378c-0.539-4.717,1.078-9.348,4.436-12.706
		c3.515-3.515,3.515-9.213,0-12.728c-3.515-3.515-9.212-3.515-12.729,0c-7.261,7.26-10.756,17.275-9.591,27.477
		c0.586,5.129,2.311,9.945,4.987,14.158c-2.07,1.654-3.925,3.752-5.509,6.289c-8.941,14.33-4.558,33.262,9.771,42.203
		c5.032,3.14,10.63,4.636,16.165,4.636c10.228,0,20.237-5.111,26.039-14.408c4.689-7.516,4.965-15.499,0.776-22.478
		C345.7,227.506,322.041,212.275,322.041,212.275z M333.154,246.289c-3.688,5.91-11.496,7.717-17.404,4.03
		c-5.909-3.687-7.717-11.494-4.029-17.403c1.194-1.915,1.934-2.196,2.62-2.196c0.142,0,0.281,0.012,0.422,0.024
		c2.211,0.189,5.679,1.75,10.308,4.638c4.629,2.888,7.556,5.318,8.697,7.22C334.192,243.311,334.594,243.98,333.154,246.289z"/>
	<path d="M188.3,174.672c4.017,4.016,6.229,9.356,6.229,15.036c0,5.68-2.212,11.02-6.229,15.036c-3.515,3.515-3.515,9.213,0,12.728
		c1.758,1.758,4.061,2.636,6.364,2.636c2.303,0,4.606-0.879,6.364-2.636c7.416-7.416,11.5-17.276,11.5-27.764
		c0-10.488-4.084-20.348-11.5-27.764l-17.259-17.258c-3.516-3.515-9.213-3.515-12.729,0c-3.515,3.515-3.515,9.213,0,12.728
		L188.3,174.672z"/>
	<path d="M284.264,220.109c2.304,0,4.606-0.879,6.364-2.636c3.515-3.515,3.515-9.213,0-12.728
		c-4.017-4.016-6.229-9.356-6.229-15.036c0-5.68,2.212-11.02,6.229-15.037l17.258-17.258c3.515-3.515,3.515-9.213,0-12.728
		c-3.516-3.515-9.213-3.515-12.729,0L277.9,161.944c-7.416,7.416-11.5,17.276-11.5,27.764c0,10.488,4.084,20.348,11.5,27.764
		C279.658,219.23,281.96,220.109,284.264,220.109z"/>
	<path d="M476.292,147.007c-39.972-39.972-93.076-63.52-149.536-66.306c-24.322-1.187-48.465,1.51-71.816,7.994
		c-5.03-0.313-10.185-0.477-15.476-0.477c-5.3,0-10.463,0.162-15.5,0.47c-23.345-6.479-47.486-9.174-71.797-7.987
		c-56.454,2.786-109.559,26.334-149.53,66.306c-3.021,3.021-3.502,7.75-1.15,11.317l49.497,75.099
		c1.683,2.553,4.521,4.048,7.513,4.047c0.495,0,0.995-0.041,1.494-0.125c3.515-0.591,6.349-3.2,7.229-6.653l3.743-14.687
		l13.916,16.472c-0.987,10.758-1.483,22.175-1.483,34.296c0,47.976,22.175,69.754,53.501,95.282c3.079,2.51,6.342,4.967,9.696,7.302
		c0.001,0,0.001,0,0.001,0c27.387,19.065,59.501,29.142,92.871,29.142c33.369,0,65.483-10.077,92.87-29.141l4.618-3.215
		c0.176-0.122,0.347-0.251,0.514-0.385c31.157-25.166,58.066-46.899,58.066-98.985c0-12.09-0.511-23.49-1.526-34.244l13.96-16.524
		l3.743,14.687c0.881,3.453,3.715,6.062,7.229,6.653c0.499,0.084,0.998,0.125,1.494,0.125c2.991,0,5.83-1.495,7.513-4.047
		l49.497-75.099C479.793,154.756,479.313,150.028,476.292,147.007z M54.93,206.022l-0.125,0.491l-34.181-51.86
		c27.551-25.703,61.257-43.324,97.669-51.332c-10.722,9.301-20.444,19.735-29.082,31.226C73.1,155.98,61.567,180.026,54.93,206.022z
		 M76.977,195.233c6.237-17.883,15.149-34.607,26.622-49.87c14.172-18.853,31.55-34.583,51.676-46.781
		c5.87-0.224,11.728-0.202,17.563,0.063c-26.387,9.524-47.026,25.541-61.661,47.974c-10.953,16.791-18.604,37.242-23.065,61.794
		L76.977,195.233z M326.406,351.554l-4.354,3.031c-24.354,16.953-52.912,25.915-82.587,25.915s-58.233-8.961-82.588-25.915l0.001,0
		c-2.984-2.077-5.881-4.259-8.61-6.483c-31.861-25.965-46.872-42.452-46.872-81.329c0-48.593,8.131-84.679,24.858-110.32
		c22.052-33.803,59.083-50.236,113.211-50.236c94.196,0,138.068,51.018,138.068,160.555
		C377.533,308.223,360.004,324.407,326.406,351.554z M367.162,146.588c-14.745-22.401-35.347-38.402-61.549-47.924
		c5.993-0.285,12.01-0.313,18.04-0.082c20.126,12.197,37.504,27.927,51.676,46.781c11.474,15.264,20.386,31.988,26.623,49.87
		l-11.253,13.32C386.14,184.069,378.334,163.56,367.162,146.588z M424.123,206.513l-0.126-0.496
		c-6.637-25.992-18.17-50.038-34.28-71.47c-8.638-11.491-18.36-21.925-29.082-31.226c36.411,8.009,70.12,25.631,97.669,51.332
		L424.123,206.513z"/>
	<path d="M239.464,204.541c4.971,0,9-4.03,9-9v-63.839c0-4.97-4.029-9-9-9s-9,4.03-9,9v63.839
		C230.464,200.512,234.493,204.541,239.464,204.541z"/>
	<path d="M277.156,251.557c-20.782-20.782-54.6-20.784-75.384,0l-45.424,45.424c-7.318,7.319-11.35,17.05-11.35,27.4
		c0,10.351,4.031,20.081,11.35,27.4c7.318,7.319,17.05,11.35,27.4,11.35c3.342,0,6.617-0.426,9.77-1.242
		c12.673,8.721,29.202,13.689,45.767,13.689c0.108,0,0.216,0,0.322,0c16.595,0,33.127-4.968,45.802-13.689
		c3.153,0.816,6.428,1.242,9.771,1.242c10.351,0,20.081-4.031,27.4-11.35c15.107-15.108,15.107-39.691,0-54.799L277.156,251.557z
		 M239.464,287.791c-11.986,0-21.738-8.755-21.738-19.516c0-4.309,2.118-14.331,21.738-14.331c19.619,0,21.737,10.022,21.737,14.331
		C261.202,279.036,251.451,287.791,239.464,287.791z M169.076,339.052L169.076,339.052c-3.92-3.919-6.078-9.13-6.078-14.672
		s2.158-10.753,6.078-14.672l31.941-31.941c3.872,13.969,16.082,24.777,31.285,27.402l-33.883,33.883
		c-3.919,3.919-9.129,6.077-14.671,6.077C178.205,345.13,172.995,342.971,169.076,339.052z M239.576,357.576
		c-0.086,0-0.172,0-0.26,0c-9.812,0-19.519-2.171-27.867-6.098l10.052-10.052c5.807-1.323,11.809-2.002,17.885-2.002
		c0.033,0,0.065,0,0.098,0c6.124,0.001,12.118,0.672,17.941,2l10.053,10.053C259.127,355.405,249.413,357.576,239.576,357.576z
		 M309.852,339.052c-3.919,3.919-9.13,6.077-14.672,6.077s-10.752-2.158-14.671-6.077l-33.883-33.883
		c15.202-2.624,27.412-13.433,31.284-27.402l31.942,31.941C317.942,317.799,317.942,330.962,309.852,339.052z"/>
</g>
<g>
</g>
<g>
</g>
<g>
</g>
<g>
</g>
<g>
</g>
<g>
</g>
<g>
</g>
<g>
</g>
<g>
</g>
<g>
</g>
<g>
</g>
<g>
</g>
<g>
</g>
<g>
</g>
<g>
</g>
</symbol>

<symbol version="1.1" id="i-sass" xmlns="http://www.w3.org/2000/svg" xmlns:xlink="http://www.w3.org/1999/xlink" x="0px" y="0px"
	 viewBox="0 0 512.007 512.007" style="enable-background:new 0 0 512.007 512.007;" xml:space="preserve">
<g transform="translate(0 -1)">
	<g>
		<g>
			<path d="M503.47,188.741h-93.867v-76.8c0-0.089-0.011-0.176-0.013-0.265c-0.004-0.111-0.009-0.222-0.017-0.333
				c-0.024-0.343-0.063-0.682-0.126-1.012c-0.004-0.022-0.006-0.044-0.01-0.066c-0.075-0.376-0.18-0.739-0.302-1.095
				c-0.022-0.065-0.047-0.128-0.07-0.192c-0.129-0.349-0.275-0.689-0.447-1.014c-0.005-0.009-0.008-0.018-0.013-0.027
				c-0.182-0.342-0.391-0.667-0.617-0.979c-0.039-0.054-0.08-0.108-0.121-0.161c-0.246-0.324-0.508-0.634-0.796-0.92L304.703,3.508
				c-0.263-0.263-0.548-0.501-0.843-0.728c-0.083-0.064-0.167-0.128-0.252-0.189c-0.285-0.203-0.58-0.395-0.89-0.562
				c-0.076-0.041-0.155-0.073-0.232-0.112c-0.247-0.124-0.501-0.236-0.761-0.336c-0.12-0.046-0.24-0.092-0.362-0.132
				c-0.294-0.098-0.593-0.183-0.899-0.249c-0.14-0.03-0.281-0.049-0.422-0.073c-0.228-0.037-0.458-0.068-0.692-0.086
				c-0.165-0.013-0.33-0.021-0.496-0.025c-0.062-0.001-0.122-0.009-0.184-0.009H8.537c-4.71,0-8.533,3.823-8.533,8.533v494.933
				c0,4.71,3.823,8.533,8.533,8.533H401.07c4.719,0,8.533-3.823,8.533-8.533v-93.867h93.867c4.719,0,8.533-3.823,8.533-8.533v-204.8
				C512.004,192.564,508.189,188.741,503.47,188.741z M307.204,30.14l73.267,73.267h-73.267V30.14z M392.537,495.941H17.07V18.074
				h273.067v93.867c0,4.71,3.823,8.533,8.533,8.533h93.867v68.267H51.204c-4.71,0-8.533,3.823-8.533,8.533v204.8
				c0,4.71,3.823,8.533,8.533,8.533h341.333V495.941z M494.937,393.541h-435.2V205.807h435.2V393.541z"/>
			<path d="M119.47,239.941c14.114,0,25.6,11.486,25.6,25.6c0,4.71,3.823,8.533,8.533,8.533c4.71,0,8.533-3.823,8.533-8.533
				c0-23.526-19.14-42.667-42.667-42.667s-42.667,19.14-42.667,42.667c0,23.526,19.14,42.667,42.667,42.667
				c14.114,0,25.6,11.486,25.6,25.6c0,14.114-11.486,25.6-25.6,25.6s-25.6-11.486-25.6-25.6c0-4.71-3.823-8.533-8.533-8.533
				c-4.71,0-8.533,3.823-8.533,8.533c0,23.526,19.14,42.667,42.667,42.667s42.667-19.14,42.667-42.667
				c0-23.526-19.14-42.667-42.667-42.667c-14.114,0-25.6-11.486-25.6-25.6C93.87,251.426,105.356,239.941,119.47,239.941z"/>
			<path d="M332.804,239.941c14.114,0,25.6,11.486,25.6,25.6c0,4.71,3.823,8.533,8.533,8.533s8.533-3.823,8.533-8.533
				c0-23.526-19.14-42.667-42.667-42.667c-23.526,0-42.667,19.14-42.667,42.667c0,23.526,19.14,42.667,42.667,42.667
				c14.114,0,25.6,11.486,25.6,25.6c0,14.114-11.486,25.6-25.6,25.6c-14.114,0-25.6-11.486-25.6-25.6
				c0-4.71-3.823-8.533-8.533-8.533s-8.533,3.823-8.533,8.533c0,23.526,19.14,42.667,42.667,42.667
				c23.526,0,42.667-19.14,42.667-42.667c0-23.526-19.14-42.667-42.667-42.667c-14.114,0-25.6-11.486-25.6-25.6
				C307.204,251.426,318.69,239.941,332.804,239.941z"/>
			<path d="M435.204,308.207c14.114,0,25.6,11.486,25.6,25.6c0,14.114-11.486,25.6-25.6,25.6s-25.6-11.486-25.6-25.6
				c0-4.71-3.814-8.533-8.533-8.533c-4.71,0-8.533,3.823-8.533,8.533c0,23.526,19.14,42.667,42.667,42.667
				c23.526,0,42.667-19.14,42.667-42.667c0-23.526-19.14-42.667-42.667-42.667c-14.114,0-25.6-11.486-25.6-25.6
				c0-14.114,11.486-25.6,25.6-25.6s25.6,11.486,25.6,25.6c0,4.71,3.814,8.533,8.533,8.533s8.533-3.823,8.533-8.533
				c0-23.526-19.14-42.667-42.667-42.667c-23.526,0-42.667,19.14-42.667,42.667C392.537,289.067,411.677,308.207,435.204,308.207z"
				/>
			<path d="M229.866,228.408c-1.289-3.405-4.582-5.692-8.235-5.53c-3.644,0.102-6.818,2.5-7.91,5.982l-42.667,136.533
				c-1.399,4.506,1.109,9.284,5.606,10.692c4.454,1.374,9.276-1.101,10.692-5.598l14.127-45.214h46.472l17.122,45.666
				c1.289,3.422,4.54,5.538,7.996,5.538c0.998,0,2.005-0.179,2.995-0.546c4.412-1.655,6.647-6.571,5.001-10.991L229.866,228.408z
				 M206.813,308.207l15.791-50.539l18.949,50.539H206.813z"/>
		</g>
	</g>
</g>
<g>
</g>
<g>
</g>
<g>
</g>
<g>
</g>
<g>
</g>
<g>
</g>
<g>
</g>
<g>
</g>
<g>
</g>
<g>
</g>
<g>
</g>
<g>
</g>
<g>
</g>
<g>
</g>
<g>
</g>
</ы>

</svg>